# xmcd
#
# Track frame offsets: 
#        150
#        13800
#        23250
#        37050
#        51375
#        60975
#        66000
#
# Disc length: 1027 seconds
#
# Revision: 0
# Processed by: cddbd v1.5.2PL0 Copyright (c) Steve Scherf et al.
# Submitted via: ExactAudioCopy v1.0b2
#
DISCID=53040107
DTITLE=하헌진 - 지난여름
DYEAR=2011
DGENRE=Blues
TTITLE0=지난 여름
TTITLE1=그대 돌아오는 날
TTITLE2=정작 내가 필요할 때는
TTITLE3=카드빚 블루스
TTITLE4=몸뚱이 블루스
TTITLE5=토끼 두 마리
TTITLE6=이제는 함께할 친구가 생겼다네
EXTD=
EXTT0=
EXTT1=
EXTT2=
EXTT3=
EXTT4=
EXTT5=
EXTT6=
PLAYORDER=
